<svg width="11" height="22" viewBox="0 0 11 22" fill="none" xmlns="http://www.w3.org/2000/svg">
<path d="M9.17233 21.9999C8.93759 22.0007 8.70565 21.9489 8.49356 21.8483C8.28147 21.7477 8.09462 21.6008 7.94673 21.4185L0.357447 11.9908C0.126341 11.7097 0 11.357 0 10.9931C0 10.6291 0.126341 10.2765 0.357447 9.99531L8.21385 0.567629C8.48056 0.246747 8.86381 0.0449563 9.2793 0.00664887C9.69478 -0.0316585 10.1085 0.0966553 10.4294 0.363362C10.7502 0.630069 10.952 1.01332 10.9903 1.42881C11.0286 1.8443 10.9003 2.25799 10.6336 2.57887L3.61 11.0009L10.3979 19.423C10.5901 19.6536 10.7121 19.9345 10.7496 20.2323C10.7872 20.5302 10.7386 20.8325 10.6097 21.1036C10.4807 21.3747 10.2768 21.6032 10.0221 21.762C9.76739 21.9208 9.4725 22.0034 9.17233 21.9999Z" fill="#333333"/>
</svg>
