<svg width="27" height="26" viewBox="0 0 27 26" fill="none" xmlns="http://www.w3.org/2000/svg">
<path d="M1.28663 13.0042H1.28664V12.9994C1.28664 9.88328 2.52452 6.89477 4.72797 4.69133C5.819 3.60029 7.11425 2.73484 8.53975 2.14437C9.96526 1.55391 11.4931 1.25 13.0361 1.25C16.1522 1.25 19.1407 2.48788 21.3442 4.69133C23.5476 6.89477 24.7855 9.88328 24.7855 12.9994C24.7855 16.1156 23.5476 19.1041 21.3442 21.3075C19.1407 23.511 16.1522 24.7488 13.0361 24.7488H1.33658H1.31028L1.284 24.75C1.27411 24.7504 1.26432 24.7478 1.25588 24.7427C1.25384 24.7414 1.25189 24.74 1.25006 24.7385C1.25018 24.7362 1.25046 24.7339 1.2509 24.7315C1.25268 24.7223 1.25703 24.7138 1.26345 24.7069C1.26376 24.7066 1.26408 24.7062 1.2644 24.7059L3.85839 22.1119L4.66144 21.3089L3.93886 20.4327C2.21467 18.3421 1.27637 15.714 1.28663 13.0042ZM1.24206 24.7653L0.604516 25.8096L1.24206 24.7653Z" stroke="#333333" stroke-width="2.5"/>
</svg>
