<svg width="30" height="21" viewBox="0 0 30 21" fill="none" xmlns="http://www.w3.org/2000/svg">
<path fill-rule="evenodd" clip-rule="evenodd" d="M27.6219 18.9H8.95775L2.55299 10.5L8.95775 2.1H27.6219V18.9ZM28.7728 0H8.35698C7.98064 0 7.62731 0.168 7.41209 0.45045L0.206299 9.90046C-0.0687663 10.2606 -0.0687663 10.7394 0.206299 11.0996L7.41209 20.5496C7.62731 20.832 7.98064 21 8.35698 21H28.7728C29.4081 21 29.9237 20.5296 29.9237 19.95V1.05C29.9237 0.4704 29.4081 0 28.7728 0ZM12.422 14.6549C12.6464 14.8596 12.941 14.9625 13.2357 14.9625C13.5303 14.9625 13.8249 14.8596 14.0493 14.6549L16.9761 11.9847L19.9028 14.6549C20.1272 14.8596 20.4219 14.9625 20.7165 14.9625C21.0111 14.9625 21.3058 14.8596 21.5302 14.6549C21.9802 14.2443 21.9802 13.5807 21.5302 13.1702L18.6035 10.5L21.5302 7.82986C21.9802 7.41931 21.9802 6.7557 21.5302 6.34515C21.0802 5.9346 20.3528 5.9346 19.9028 6.34515L16.9761 9.01531L14.0493 6.34515C13.5993 5.9346 12.872 5.9346 12.422 6.34515C11.972 6.7557 11.972 7.41931 12.422 7.82986L15.3487 10.5L12.422 13.1702C11.972 13.5807 11.972 14.2443 12.422 14.6549Z" fill="#3D3D3F"/>
</svg>
