<svg width="92" height="71" viewBox="0 0 92 71" fill="none" xmlns="http://www.w3.org/2000/svg">
<path d="M0 11.6991C0 8.59631 1.2116 5.6206 3.36826 3.42659C5.52493 1.23258 8.44999 0 11.5 0H80.4998C83.5498 0 86.4748 1.23258 88.6315 3.42659C90.7882 5.6206 91.9998 8.59631 91.9998 11.6991V40.9469H0V11.6991ZM66.1248 17.5487C65.3623 17.5487 64.6311 17.8568 64.0919 18.4053C63.5527 18.9538 63.2498 19.6977 63.2498 20.4734V26.323C63.2498 27.0987 63.5527 27.8426 64.0919 28.3911C64.6311 28.9396 65.3623 29.2478 66.1248 29.2478H77.6248C78.3873 29.2478 79.1186 28.9396 79.6577 28.3911C80.1969 27.8426 80.4998 27.0987 80.4998 26.323V20.4734C80.4998 19.6977 80.1969 18.9538 79.6577 18.4053C79.1186 17.8568 78.3873 17.5487 77.6248 17.5487H66.1248ZM0 52.646V58.4955C0 61.5983 1.2116 64.574 3.36826 66.768C5.52493 68.962 8.44999 70.1946 11.5 70.1946H80.4998C83.5498 70.1946 86.4748 68.962 88.6315 66.768C90.7882 64.574 91.9998 61.5983 91.9998 58.4955V52.646H0Z" fill="#001FDF"/>
</svg>
