<svg width="48" height="48" viewBox="0 0 48 48" fill="none" xmlns="http://www.w3.org/2000/svg">
<g clip-path="url(#clip0_243_1005)">
<path d="M32.1832 9.22601L45.5852 31.548C47.5112 34.754 46.5652 38.972 43.4712 40.968C42.4327 41.6404 41.2223 41.9987 39.9852 42H13.1792C9.53716 42 6.58316 38.94 6.58316 35.162C6.58316 33.884 6.92916 32.634 7.57916 31.548L20.9832 9.22601C22.9072 6.02001 26.9752 5.03801 30.0692 7.03401C30.9252 7.58601 31.6492 8.33601 32.1832 9.22601ZM26.5832 34C27.1136 34 27.6223 33.7893 27.9974 33.4142C28.3724 33.0392 28.5832 32.5304 28.5832 32C28.5832 31.4696 28.3724 30.9609 27.9974 30.5858C27.6223 30.2107 27.1136 30 26.5832 30C26.0527 30 25.544 30.2107 25.1689 30.5858C24.7939 30.9609 24.5832 31.4696 24.5832 32C24.5832 32.5304 24.7939 33.0392 25.1689 33.4142C25.544 33.7893 26.0527 34 26.5832 34ZM26.5832 16C26.0527 16 25.544 16.2107 25.1689 16.5858C24.7939 16.9609 24.5832 17.4696 24.5832 18V26C24.5832 26.5304 24.7939 27.0392 25.1689 27.4142C25.544 27.7893 26.0527 28 26.5832 28C27.1136 28 27.6223 27.7893 27.9974 27.4142C28.3724 27.0392 28.5832 26.5304 28.5832 26V18C28.5832 17.4696 28.3724 16.9609 27.9974 16.5858C27.6223 16.2107 27.1136 16 26.5832 16Z" fill="#EB001B"/>
</g>
<defs>
<clipPath id="clip0_243_1005">
<rect width="47.0699" height="47.885" fill="white" transform="scale(1.0024)"/>
</clipPath>
</defs>
</svg>
