<svg width="32" height="13" viewBox="0 0 32 13" fill="none" xmlns="http://www.w3.org/2000/svg">
<path d="M4.35334 12.4829C7.37924 12.4829 9.17664 10.1166 9.17664 6.10952C9.17664 4.60069 8.88807 3.33096 8.33565 2.34981C7.53589 0.824496 6.15898 0 4.4193 0C1.83038 0 0 1.73969 0 4.18019C0 6.47229 1.64899 8.13778 3.91636 8.13778C5.30975 8.13778 6.43931 7.48642 6.99997 6.35686H7.02471C7.02471 6.35686 7.05769 6.35686 7.06593 6.35686C7.08242 6.35686 7.14013 6.35686 7.14013 6.35686C7.14013 9.0777 6.10951 10.702 4.36983 10.702C3.34745 10.702 2.55594 10.1413 2.28385 9.2426H0.164899C0.519432 11.1967 2.17667 12.4829 4.35334 12.4829ZM4.42754 6.44756C3.05888 6.44756 2.08597 5.47465 2.08597 4.11423C2.08597 2.7868 3.10835 1.77267 4.43579 1.77267C5.76323 1.77267 6.7856 2.80329 6.7856 4.14721C6.7856 5.47465 5.78796 6.44756 4.42754 6.44756Z" fill="#333333"/>
<path d="M12.6563 12.3674C13.4396 12.3674 13.9755 11.8068 13.9755 11.0647C13.9755 10.3144 13.4396 9.76203 12.6563 9.76203C11.8813 9.76203 11.3371 10.3144 11.3371 11.0647C11.3371 11.8068 11.8813 12.3674 12.6563 12.3674ZM12.6563 6.18372C13.4396 6.18372 13.9755 5.63131 13.9755 4.88926C13.9755 4.13897 13.4396 3.58656 12.6563 3.58656C11.8813 3.58656 11.3371 4.13897 11.3371 4.88926C11.3371 5.63131 11.8813 6.18372 12.6563 6.18372Z" fill="#333333"/>
<path d="M21.6931 12.1943H23.7297V9.9764H25.3374V8.179H23.7297V0.296819H20.7285C18.626 3.46288 16.9523 6.10952 15.8804 8.08006V9.9764H21.6931V12.1943ZM17.851 8.1048C19.2361 5.66429 20.4729 3.71023 21.6107 2.02826H21.7261V8.22847H17.851V8.1048Z" fill="#333333"/>
<path d="M29.8725 12.1943H31.9997V0.296819H29.8807L26.7724 2.47349V4.51824L29.7323 2.44051H29.8725V12.1943Z" fill="#333333"/>
</svg>
