<svg width="200" height="57" viewBox="0 0 200 57" fill="none" xmlns="http://www.w3.org/2000/svg">
<path d="M73.7225 38.0273C73.4712 38.096 73.0825 38.1645 72.5568 38.2331C72.0311 38.3018 71.5167 38.336 71.0138 38.336C69.9623 38.336 69.1736 38.1589 68.6479 37.8046C68.1223 37.4503 67.8594 36.7017 67.8594 35.5588V30.9301C67.288 30.0844 66.6707 29.1472 66.0079 28.1187C65.345 27.0901 64.6937 26.0387 64.0536 24.9642C63.4136 23.8901 62.8192 22.8328 62.2707 21.7928C61.7221 20.7527 61.2764 19.7984 60.9336 18.9297C61.2307 18.5184 61.6364 18.1412 62.1506 17.7982C62.665 17.4553 63.2993 17.284 64.0536 17.284C64.945 17.284 65.6708 17.4669 66.2307 17.8325C66.7907 18.1982 67.3223 18.884 67.825 19.8898L70.6707 25.6156H70.8765C71.1965 24.9071 71.4766 24.2613 71.7165 23.6784C71.9566 23.0955 72.1907 22.5125 72.4193 21.9298C72.6478 21.3469 72.8878 20.7411 73.1392 20.1125C73.3906 19.4839 73.6765 18.7583 73.9964 17.9354C74.4077 17.7296 74.8649 17.5698 75.3678 17.4553C75.8705 17.341 76.3507 17.284 76.8078 17.284C77.6077 17.284 78.2879 17.4954 78.8478 17.9183C79.4079 18.3413 79.6878 18.9754 79.6878 19.8211C79.6878 20.0955 79.6306 20.4268 79.5164 20.8155C79.402 21.204 79.1392 21.7926 78.7277 22.5811C78.3164 23.3698 77.7163 24.4384 76.9276 25.787C76.1391 27.1356 75.0704 28.8956 73.7219 31.0671V38.0273H73.7225ZM97.7573 29.8329C97.7573 31.25 97.54 32.5129 97.1058 33.6216C96.6715 34.7302 96.06 35.6616 95.2715 36.4159C94.4828 37.1703 93.54 37.7417 92.4428 38.1302C91.3457 38.5188 90.1228 38.7131 88.7741 38.7131C87.4255 38.7131 86.2028 38.5073 85.1055 38.0958C84.0083 37.6844 83.0654 37.0959 82.2769 36.3302C81.4883 35.5644 80.8768 34.6329 80.4425 33.5358C80.0081 32.4387 79.791 31.2043 79.791 29.8329C79.791 28.4841 80.0081 27.2615 80.4425 26.1641C80.8768 25.067 81.4883 24.1356 82.2769 23.3698C83.0654 22.6041 84.0083 22.0155 85.1055 21.6042C86.2026 21.1927 87.4255 20.9869 88.7741 20.9869C90.1228 20.9869 91.3455 21.1983 92.4428 21.6212C93.54 22.0441 94.4828 22.6383 95.2715 23.4041C96.06 24.1698 96.6715 25.1012 97.1058 26.1983C97.54 27.2956 97.7573 28.507 97.7573 29.8327V29.8329ZM85.7569 29.8329C85.7569 31.2272 86.0255 32.2958 86.5626 33.0386C87.0998 33.7814 87.8485 34.1529 88.8084 34.1529C89.7683 34.1529 90.5056 33.7757 91.0199 33.0214C91.5343 32.267 91.7914 31.2041 91.7914 29.8327C91.7914 28.4613 91.5284 27.4041 91.0027 26.6613C90.4771 25.9183 89.7341 25.547 88.7741 25.547C87.8142 25.547 87.0711 25.9183 86.5456 26.6613C86.0199 27.4041 85.7569 28.4613 85.7569 29.8327V29.8329ZM100.603 21.7412C100.831 21.6727 101.192 21.6042 101.683 21.5355C102.174 21.4669 102.683 21.4326 103.209 21.4326C103.712 21.4326 104.163 21.4669 104.563 21.5355C104.963 21.6042 105.3 21.7412 105.575 21.9468C105.849 22.1526 106.06 22.4325 106.209 22.7868C106.357 23.1411 106.432 23.604 106.432 24.1754V31.5471C106.432 32.4841 106.66 33.1527 107.117 33.5528C107.575 33.9528 108.238 34.1529 109.106 34.1529C109.632 34.1529 110.061 34.1072 110.392 34.0157C110.723 33.9243 110.98 33.8329 111.163 33.7414V21.741C111.392 21.6725 111.752 21.604 112.243 21.5354C112.735 21.4667 113.243 21.4325 113.769 21.4325C114.272 21.4325 114.724 21.4667 115.124 21.5354C115.524 21.604 115.861 21.741 116.135 21.9467C116.409 22.1525 116.621 22.4324 116.769 22.7867C116.918 23.1409 116.992 23.6039 116.992 24.1753V34.5983C116.992 35.7413 116.512 36.5983 115.552 37.1699C114.752 37.6726 113.798 38.0556 112.689 38.3184C111.581 38.5814 110.375 38.7128 109.072 38.7128C107.838 38.7128 106.7 38.5757 105.661 38.3013C104.62 38.027 103.723 37.6041 102.969 37.0327C102.215 36.4613 101.632 35.7241 101.22 34.8212C100.809 33.9183 100.603 32.8268 100.603 31.5468V21.7407L100.603 21.7412ZM130.329 22.4612C130.581 22.347 130.975 22.2154 131.512 22.0669C132.049 21.9185 132.592 21.8439 133.141 21.8439C134.101 21.8439 134.901 21.9868 135.541 22.2726C136.181 22.5582 136.569 22.9754 136.707 23.5239C136.958 24.461 137.192 25.3354 137.409 26.1469C137.626 26.9583 137.838 27.7354 138.044 28.4784C138.249 29.2212 138.449 29.9584 138.644 30.6899C138.838 31.4214 139.027 32.1871 139.21 32.9871H139.381C139.587 31.5928 139.769 30.2612 139.929 28.9927C140.09 27.7241 140.238 26.4784 140.375 25.2556C140.512 24.0327 140.649 22.8212 140.786 21.6212C140.924 20.4212 141.061 19.204 141.198 17.9696C142.044 17.4895 142.947 17.2497 143.907 17.2497C144.752 17.2497 145.484 17.4326 146.101 17.7982C146.718 18.164 147.027 18.7811 147.027 19.6497C147.027 20.1525 146.975 20.8669 146.872 21.7926C146.77 22.7183 146.632 23.7526 146.461 24.8954C146.29 26.0384 146.09 27.2384 145.861 28.4956C145.632 29.7528 145.392 30.9527 145.141 32.0956C144.89 33.2385 144.632 34.2727 144.369 35.1985C144.107 36.1242 143.861 36.8385 143.632 37.3414C143.289 37.6614 142.729 37.9241 141.952 38.1299C141.175 38.3357 140.375 38.4385 139.552 38.4385C138.478 38.4385 137.569 38.2956 136.826 38.01C136.084 37.7242 135.632 37.3185 135.472 36.7928C135.175 35.8784 134.855 34.7928 134.512 33.5355C134.169 32.2783 133.803 30.8954 133.415 29.3869C133.095 30.8726 132.763 32.3242 132.42 33.7413C132.077 35.1584 131.769 36.3585 131.495 37.3414C131.152 37.6614 130.638 37.9241 129.952 38.1299C129.266 38.3357 128.512 38.4385 127.689 38.4385C126.66 38.4385 125.729 38.2956 124.895 38.01C124.06 37.7242 123.517 37.3185 123.266 36.7928C123.06 36.3813 122.837 35.7699 122.597 34.9585C122.357 34.147 122.112 33.2212 121.86 32.1813C121.609 31.1412 121.352 30.0154 121.089 28.804C120.826 27.5925 120.586 26.3811 120.369 25.1696C120.152 23.9583 119.952 22.7753 119.769 21.6209C119.586 20.4666 119.449 19.4094 119.357 18.4494C119.677 18.1522 120.123 17.878 120.694 17.6265C121.266 17.3751 121.883 17.2494 122.546 17.2494C123.415 17.2494 124.129 17.4379 124.689 17.8151C125.249 18.1922 125.597 18.8267 125.735 19.7179C126.1 22.0494 126.403 23.9924 126.643 25.5467C126.883 27.1009 127.077 28.3752 127.226 29.3697C127.375 30.364 127.483 31.1353 127.552 31.6839C127.62 32.2324 127.689 32.6668 127.757 32.9868H127.929C128.135 32.0725 128.329 31.2268 128.512 30.4495C128.694 29.6723 128.883 28.8895 129.077 28.101C129.272 27.3123 129.472 26.4666 129.677 25.5637C129.883 24.661 130.1 23.6265 130.329 22.4609L130.329 22.4612ZM166.776 29.8329C166.776 31.25 166.559 32.5129 166.124 33.6216C165.69 34.7302 165.079 35.6616 164.29 36.4159C163.501 37.1703 162.559 37.7417 161.461 38.1302C160.364 38.5188 159.141 38.7131 157.793 38.7131C156.444 38.7131 155.221 38.5073 154.124 38.0958C153.027 37.6844 152.084 37.0959 151.296 36.3302C150.507 35.5644 149.895 34.6329 149.461 33.5358C149.027 32.4387 148.81 31.2043 148.81 29.8329C148.81 28.4841 149.027 27.2615 149.461 26.1641C149.895 25.067 150.507 24.1356 151.296 23.3698C152.084 22.6041 153.027 22.0155 154.124 21.6042C155.221 21.1927 156.444 20.9869 157.793 20.9869C159.141 20.9869 160.364 21.1983 161.461 21.6212C162.559 22.0441 163.501 22.6383 164.29 23.4041C165.079 24.1698 165.69 25.1012 166.124 26.1983C166.559 27.2956 166.776 28.507 166.776 29.8327V29.8329ZM154.776 29.8329C154.776 31.2272 155.044 32.2958 155.581 33.0386C156.118 33.7814 156.867 34.1529 157.827 34.1529C158.787 34.1529 159.524 33.7757 160.039 33.0214C160.553 32.267 160.81 31.2041 160.81 29.8327C160.81 28.4613 160.547 27.4041 160.021 26.6613C159.496 25.9183 158.753 25.547 157.793 25.547C156.833 25.547 156.09 25.9183 155.564 26.6613C155.039 27.4041 154.776 28.4613 154.776 29.8327V29.8329ZM175.45 38.1302C175.222 38.1989 174.862 38.2674 174.37 38.336C173.879 38.4047 173.37 38.439 172.844 38.439C172.342 38.439 171.89 38.4047 171.49 38.336C171.09 38.2674 170.753 38.1302 170.479 37.9246C170.204 37.7188 169.993 37.4389 169.844 37.0846C169.696 36.7303 169.622 36.2674 169.622 35.6961V25.4101C169.622 24.8844 169.719 24.433 169.913 24.0558C170.107 23.6787 170.387 23.3415 170.753 23.0444C171.118 22.7471 171.57 22.4785 172.107 22.2386C172.644 21.9986 173.221 21.7872 173.839 21.6043C174.456 21.4213 175.096 21.2785 175.759 21.1756C176.422 21.0727 177.084 21.0214 177.747 21.0214C178.844 21.0214 179.713 21.2328 180.353 21.6558C180.993 22.0787 181.313 22.7701 181.313 23.7301C181.313 24.0502 181.267 24.3645 181.176 24.673C181.085 24.9816 180.97 25.2616 180.833 25.513C180.353 25.513 179.862 25.5359 179.359 25.5817C178.856 25.6274 178.364 25.6959 177.884 25.7875C177.404 25.8788 176.953 25.9759 176.53 26.0788C176.107 26.1817 175.747 26.3017 175.45 26.4388V38.1305L175.45 38.1302ZM199.999 35.1472C199.885 36.2215 199.571 37.0445 199.057 37.6159C198.542 38.1874 197.794 38.4731 196.811 38.4731C196.079 38.4731 195.428 38.2959 194.856 37.9416C194.285 37.5874 193.668 36.9871 193.005 36.1414L189.611 31.8899V38.1301C189.359 38.1758 188.988 38.2386 188.496 38.3185C188.005 38.3987 187.508 38.4387 187.005 38.4387C186.502 38.4387 186.05 38.4044 185.651 38.3357C185.251 38.2671 184.913 38.1299 184.639 37.9243C184.365 37.7185 184.153 37.4386 184.005 37.0843C183.856 36.73 183.782 36.2671 183.782 35.6958V15.8439C184.033 15.7753 184.405 15.7011 184.896 15.6209C185.387 15.541 185.885 15.501 186.388 15.501C186.89 15.501 187.342 15.5352 187.742 15.6039C188.142 15.6725 188.479 15.8097 188.753 16.0153C189.028 16.221 189.239 16.5009 189.388 16.8552C189.536 17.2095 189.611 17.6724 189.611 18.2438V27.2954L195.508 21.2609C196.696 21.2609 197.651 21.5237 198.371 22.0494C199.091 22.5751 199.451 23.2381 199.451 24.0381C199.451 24.3811 199.394 24.6954 199.279 24.981C199.165 25.2666 198.988 25.5581 198.748 25.8554C198.508 26.1525 198.199 26.4668 197.822 26.7981C197.445 27.1296 197.005 27.5126 196.502 27.9468L194.514 29.6612L199.999 35.1469V35.1472Z" fill="white"/>
<path fill-rule="evenodd" clip-rule="evenodd" d="M14.9688 15.0826C14.9688 20.2439 20.1736 29.2041 22.7647 34.0631L26.7486 40.79C28.4868 43.4025 32.0679 43.3482 33.7479 40.8561C34.1083 40.3212 34.4244 39.7652 34.7445 39.2302L40.5433 28.9628C42.329 25.3715 45.5707 19.0241 45.5707 15.1918C45.5707 11.498 44.2237 8.33554 42.121 5.63544C39.6338 2.44148 35.0701 0 31.0348 0C28.0987 0 26.2632 0.192832 23.6756 1.49362C23.239 1.71301 22.8548 1.87355 22.445 2.12085C22.043 2.36393 21.709 2.60338 21.3277 2.86125C18.5991 4.70628 16.0704 8.53878 15.3944 11.7919C15.2068 12.6949 14.9689 14.0007 14.9689 15.0823L14.9688 15.0826ZM22.5666 14.8218C21.6296 14.8218 21.3283 14.7835 20.7112 15.244C20.3418 15.52 19.9738 16.0846 19.9834 16.737C20.0135 18.8046 22.7361 19.3288 23.626 17.5378C24.1029 16.5781 23.5258 15.7735 25.0995 14.5549C26.517 13.4575 27.3587 14.4832 28.5423 13.5917C28.9304 13.2995 29.2809 12.7868 29.2937 12.1249C29.3325 10.0867 26.6067 9.42026 25.6721 11.2377C25.4122 11.7433 25.4273 12.4556 25.2183 13.0168C24.913 13.8356 23.764 14.8217 22.5666 14.8217V14.8218ZM37.247 18.7578C37.705 20.689 40.7915 20.0707 40.3153 18.0064C39.8513 15.9947 36.7484 16.6546 37.247 18.7578ZM21.7923 9.7246C19.71 10.148 20.4065 13.2392 22.4269 12.8111C24.4643 12.3797 23.8261 9.31117 21.7923 9.7246ZM25.326 23.3695C25.5982 25.4013 28.7027 25.0175 28.4608 22.9633C28.3641 22.1414 27.6451 21.4744 26.6586 21.5939C25.8606 21.6904 25.2045 22.4618 25.3262 23.3697L25.326 23.3695ZM33.5165 4.97637C31.4013 5.79613 32.6559 8.62207 34.483 7.97688C35.1998 7.72385 35.7764 6.97832 35.5022 6.02699C35.3157 5.38059 34.4756 4.60458 33.5165 4.97637ZM34.8018 21.0896C34.9967 22.2425 36.9454 22.0957 36.7318 20.7276C36.5414 19.5076 34.5791 19.7725 34.8018 21.0896ZM25.2859 20.4159C25.6732 19.1272 23.7352 18.71 23.4129 19.8647C23.0639 21.1154 24.9087 21.6707 25.2859 20.4159ZM36.3114 8.53939C35.0251 8.89518 35.5295 10.7447 36.7754 10.4307C37.2375 10.3143 37.6163 9.83836 37.4791 9.23874C37.3727 8.77416 36.8591 8.38775 36.3113 8.53954L36.3114 8.53939ZM24.7631 7.82253C23.495 8.35998 24.3268 10.1235 25.5013 9.61988C25.9131 9.44319 26.2291 8.91358 26.0225 8.36164C25.8715 7.95817 25.3266 7.58368 24.7632 7.82253H24.7631ZM29.7382 8.69299C29.8692 8.8908 30.0005 8.93365 30.1545 9.09751C30.3146 9.26771 30.3846 9.39959 30.5696 9.53403C30.6014 9.7166 30.7531 9.8192 30.9213 10.2468C31.2961 11.1991 30.7627 12.0242 31.4784 12.9531C32.2526 13.9582 33.6664 13.9677 34.4391 13.0634C35.3263 12.025 34.8412 10.709 33.9224 10.1516C33.3903 9.82871 32.7692 9.91215 32.1898 9.70513C31.898 9.60072 31.699 9.47216 31.4908 9.31539L30.9157 8.7802C30.728 8.35923 30.4445 8.1492 30.3184 7.5369C30.2304 7.10989 30.3934 6.07829 30.1616 5.82344C30.0949 4.48584 27.2865 3.54899 26.5298 5.72672C26.2011 6.67278 26.7839 7.57341 27.328 7.93358C27.9142 8.32166 28.4859 8.19703 29.1999 8.44584C29.3948 8.51389 29.6154 8.68439 29.7381 8.69299H29.7382ZM36.7902 15.0895C37.0278 15.0551 37.2232 14.9679 37.4498 14.94C37.9515 14.8778 39.1506 15.0857 39.5497 14.5312C39.9016 14.4626 40.2722 13.8045 40.3553 13.3406C40.6786 11.5375 38.4724 10.3277 37.1144 11.6982C36.0905 12.7316 37.0124 14.3064 34.828 15.4723C34.2384 15.7872 33.8708 15.7449 33.1369 15.7427C31.9662 15.7391 31.0453 16.5501 31.0746 17.7215C31.119 19.5003 33.3337 20.2386 34.5154 18.7866C34.9011 18.3129 34.873 17.8601 34.9979 17.2538C35.3079 15.7498 36.5735 15.3249 36.79 15.0895H36.7902ZM30.6233 21.0127C30.4542 20.8206 30.3719 20.8177 30.2118 20.6471C30.049 20.4733 30.0371 20.3866 29.8215 20.2498C29.8429 20.0408 29.3185 19.7579 29.2961 18.6558C29.2803 17.864 29.3532 17.4401 28.9547 16.8784C28.3137 15.9746 27.011 15.6562 26.0795 16.5176C25.2147 17.3179 25.2724 18.6726 26.2043 19.4211C27.1339 20.1679 28.0898 19.5725 29.175 20.7002C30.5702 22.15 29.8764 22.9499 30.1758 23.95C30.4718 24.9393 31.6819 25.6974 32.8404 25.1497C34.4991 24.3657 34.2072 21.835 32.2425 21.5148C31.1887 21.343 31.4636 21.445 30.6233 21.0127Z" fill="white"/>
<path fill-rule="evenodd" clip-rule="evenodd" d="M0 44.4083C0 46.8071 0.883286 48.3107 2.61772 49.7127C8.65165 54.5897 20.6249 56.2322 28.377 56.2322H32.5957C33.396 56.22 34.0851 56.1948 34.4393 56.1462C34.8355 56.092 35.1932 56.1217 35.5937 56.1183L39.0707 55.8118C45.0311 54.9598 55.1793 53.4705 59.1034 48.5316C59.9541 47.4609 60.421 46.384 60.5374 45.3236V44.2656C60.3882 42.906 59.665 41.5871 58.4387 40.3587C57.6364 39.5554 55.6998 37.9056 54.5074 37.9056C52.8265 37.9056 51.7736 40.2421 53.9206 41.4482C58.2735 43.894 57.7264 46.0744 53.419 48.4045C52.873 48.7 52.1492 49.0419 51.5699 49.2748C47.0867 51.0779 40.2603 52.3313 35.5863 52.4456C34.7143 52.467 34.5476 52.5708 32.9855 52.5643C31.9021 52.5598 30.2668 52.7559 28.9675 52.6858L25.0664 52.4486C19.9787 52.1946 16.0274 51.4817 11.0444 50.0358C10.3487 49.8337 9.75507 49.5466 9.05919 49.3014C8.01747 48.9347 6.39681 48.0325 5.50749 47.4143C2.1204 45.0589 3.74861 43.1214 6.54105 41.4908C8.8905 40.1189 7.59499 37.9057 6.03015 37.9057C4.8377 37.9057 2.90108 39.5555 2.09882 40.3588C1.48004 40.9787 1.16107 41.2808 0.712785 42.0471C0.409353 42.5659 0 43.5973 0 44.4085L0 44.4083Z" fill="white"/>
<path fill-rule="evenodd" clip-rule="evenodd" d="M10.1738 42.0436C10.1738 48.2487 26.5371 49.0197 30.2742 49.0197C34.7332 49.0197 47.7856 48.245 50.0229 43.4654C50.8865 41.6203 49.9894 40.0455 48.5743 38.8777L46.6595 37.7183C46.1195 37.4962 45.787 37.3374 45.2411 37.1269C44.701 36.9185 44.2679 36.8326 43.7088 36.6489C42.6768 36.3095 41.5128 36.1446 40.4427 35.8952C40.0728 36.5942 38.6425 38.9297 38.5508 39.3241C39.7932 39.3241 41.804 39.8769 42.902 40.1752C43.5089 40.3401 44.2476 40.6074 44.8162 40.8625L46.591 41.807C46.5118 42.7587 44.4412 43.3766 43.6815 43.627C37.0111 45.8236 27.5886 45.7379 20.6642 44.5597C18.9156 44.2618 15.9021 43.5368 14.4234 42.5236C14.0976 42.3004 13.9964 42.2739 13.9576 41.807C14.2075 41.7402 15.4414 40.7993 17.5534 40.2004C18.6471 39.8902 20.7731 39.3241 21.9977 39.3241C21.9032 38.9188 21.3309 38.0354 21.0892 37.6314C20.7117 37.0004 20.4436 36.5331 20.1057 35.8952C18.1809 36.3436 17.2169 36.4886 15.3139 37.1335C13.2127 37.8457 10.1738 39.4386 10.1738 42.0436Z" fill="white"/>
</svg>
