<svg width="45" height="36" viewBox="0 0 45 36" fill="none" xmlns="http://www.w3.org/2000/svg">
<path d="M8.18934 35.0621V32.795C8.18934 31.9257 7.64845 31.3591 6.72134 31.3591C6.25787 31.3591 5.75569 31.5102 5.408 32.0015C5.13773 31.5858 4.75151 31.3591 4.17208 31.3591C3.78568 31.3591 3.39964 31.4723 3.09048 31.888V31.4347H2.27932V35.0621H3.09048V33.0594C3.09048 32.4172 3.43817 32.1147 3.97906 32.1147C4.5196 32.1147 4.79022 32.4549 4.79022 33.0594V35.0621H5.60138V33.0594C5.60138 32.4172 5.98743 32.1147 6.4896 32.1147C7.03049 32.1147 7.30076 32.4549 7.30076 33.0594V35.0621H8.18934ZM20.2021 31.4347H18.8889V30.3389H18.0777V31.4347H17.3438V32.1524H18.0776V33.8152C18.0776 34.6466 18.4253 35.1377 19.3524 35.1377C19.7001 35.1377 20.0861 35.0244 20.3567 34.8733L20.1248 34.1931C19.8931 34.3442 19.6228 34.3821 19.4296 34.3821C19.0434 34.3821 18.8889 34.1554 18.8889 33.7774V32.1524H20.2021V31.4347ZM27.0777 31.3589C26.6143 31.3589 26.3053 31.5858 26.1121 31.888V31.4347H25.3009V35.0621H26.1121V33.0217C26.1121 32.4172 26.3823 32.077 26.8845 32.077C27.039 32.077 27.2322 32.1149 27.3867 32.1526L27.6184 31.397C27.464 31.3591 27.2322 31.3591 27.0777 31.3591V31.3589ZM16.6872 31.7369C16.3008 31.4723 15.76 31.3591 15.1806 31.3591C14.2537 31.3591 13.6357 31.8125 13.6357 32.5304C13.6357 33.1351 14.0992 33.4751 14.9103 33.5885L15.2966 33.6264C15.7215 33.7018 15.9532 33.8152 15.9532 34.0042C15.9532 34.2686 15.6443 34.4576 15.1034 34.4576C14.5627 34.4576 14.1377 34.2686 13.8673 34.0798L13.4811 34.6843C13.906 34.9866 14.4854 35.1377 15.0647 35.1377C16.1463 35.1377 16.7644 34.6466 16.7644 33.9664C16.7644 33.324 16.2622 32.9838 15.4896 32.8706L15.1034 32.8327C14.7557 32.7948 14.4854 32.7194 14.4854 32.4927C14.4854 32.2282 14.7557 32.077 15.1806 32.077C15.6443 32.077 16.1077 32.2659 16.3395 32.3793L16.6872 31.7369ZM38.2409 31.3591C37.7773 31.3591 37.4683 31.5858 37.2751 31.888V31.4347H36.4639V35.0621H37.2751V33.0217C37.2751 32.4172 37.5455 32.077 38.0475 32.077C38.2022 32.077 38.3954 32.1149 38.5499 32.1526L38.7816 31.397C38.6271 31.3591 38.3954 31.3591 38.2409 31.3591ZM27.8889 33.2484C27.8889 34.3442 28.6613 35.1377 29.8589 35.1377C30.3996 35.1377 30.7858 35.0244 31.1721 34.7222L30.7858 34.0798C30.4769 34.3065 30.1679 34.4198 29.8202 34.4198C29.1635 34.4198 28.7 33.9664 28.7 33.2484C28.7 32.5683 29.1635 32.1147 29.8202 32.077C30.1679 32.077 30.4769 32.1903 30.7858 32.4172L31.1721 31.7748C30.7858 31.4723 30.3996 31.3591 29.8589 31.3591C28.6613 31.3591 27.8889 32.1526 27.8889 33.2484ZM35.3825 33.2484V31.4347H34.5714V31.888C34.3009 31.5481 33.9147 31.3591 33.4125 31.3591C32.3696 31.3591 31.5585 32.1526 31.5585 33.2484C31.5585 34.3442 32.3696 35.1377 33.4125 35.1377C33.9532 35.1377 34.3396 34.9489 34.5714 34.6088V35.0621H35.3825V33.2484ZM32.4081 33.2484C32.4081 32.606 32.8331 32.077 33.5283 32.077C34.185 32.077 34.6486 32.5683 34.6486 33.2484C34.6486 33.8908 34.185 34.4198 33.5283 34.4198C32.8331 34.3819 32.4081 33.8908 32.4081 33.2484ZM22.713 31.3591C21.6313 31.3591 20.8587 32.1147 20.8587 33.2484C20.8587 34.3821 21.6312 35.1377 22.7515 35.1377C23.2922 35.1377 23.8331 34.9866 24.258 34.6466L23.8716 34.0798C23.5626 34.3065 23.1764 34.4576 22.7902 34.4576C22.288 34.4576 21.7858 34.2309 21.6699 33.5884H24.4125V33.2863C24.4512 32.1147 23.7558 31.3591 22.7128 31.3591H22.713ZM22.713 32.0392C23.215 32.0392 23.5628 32.3416 23.6399 32.9084H21.7086C21.7858 32.4172 22.1335 32.0392 22.713 32.0392ZM42.8374 33.2484V29.9987H42.0263V31.888C41.7558 31.5481 41.3696 31.3591 40.8674 31.3591C39.8245 31.3591 39.0134 32.1526 39.0134 33.2484C39.0134 34.3442 39.8245 35.1377 40.8674 35.1377C41.4083 35.1377 41.7945 34.9489 42.0263 34.6088V35.0621H42.8374V33.2484ZM39.8632 33.2484C39.8632 32.606 40.288 32.077 40.9834 32.077C41.64 32.077 42.1035 32.5683 42.1035 33.2484C42.1035 33.8908 41.64 34.4198 40.9834 34.4198C40.288 34.3819 39.8632 33.8908 39.8632 33.2484ZM12.7471 33.2484V31.4347H11.936V31.888C11.6655 31.5481 11.2793 31.3591 10.7771 31.3591C9.73424 31.3591 8.92308 32.1526 8.92308 33.2484C8.92308 34.3442 9.73424 35.1377 10.7771 35.1377C11.318 35.1377 11.7042 34.9489 11.936 34.6088V35.0621H12.7471V33.2484ZM9.73424 33.2484C9.73424 32.606 10.1592 32.077 10.8544 32.077C11.511 32.077 11.9747 32.5683 11.9747 33.2484C11.9747 33.8908 11.511 34.4198 10.8544 34.4198C10.1592 34.3819 9.73424 33.8908 9.73424 33.2484Z" fill="white"/>
<path d="M17.189 13.6034C17.189 9.2579 19.2748 5.40354 22.4807 2.90953C20.1247 1.09579 17.1505 0 13.9058 0C6.21882 0 0 6.08363 0 13.6034C0 21.1229 6.21882 27.2067 13.9057 27.2067C17.1503 27.2067 20.1245 26.1109 22.4807 24.297C19.2748 21.8409 17.189 17.9488 17.189 13.6034Z" fill="#EB001B"/>
<path d="M22.4809 2.90955C19.2749 5.40356 17.1892 9.25792 17.1892 13.6034C17.1892 17.9488 19.2749 21.8409 22.4809 24.297C25.7255 21.8032 27.8113 17.9488 27.8113 13.6034C27.8113 9.25792 25.6868 5.40356 22.4809 2.90955Z" fill="#FF5F00"/>
<path d="M45 13.6034C45 21.1229 38.7812 27.2067 31.0943 27.2067C27.8497 27.2067 24.8755 26.1109 22.5193 24.297C25.7639 21.8032 27.8112 17.9488 27.8112 13.6034C27.8112 9.2579 25.7252 5.40354 22.5193 2.90953C24.8753 1.09579 27.8497 0 31.0943 0C38.7812 0 45.0002 6.1215 45.0002 13.6034H45Z" fill="#F79E1B"/>
</svg>
