<svg width="15" height="16" viewBox="0 0 15 16" fill="none" xmlns="http://www.w3.org/2000/svg">
<path d="M5.20346 13.7977C5.39063 14.2455 5.69086 14.6249 6.06851 14.8909C6.44616 15.1569 6.88537 15.2982 7.334 15.2982C7.78263 15.2982 8.22184 15.1569 8.59949 14.8909C8.97714 14.6249 9.27737 14.2455 9.46453 13.7977M0.703693 12.2794C1.77506 12.2786 1.91506 11.5168 1.92884 10.4627V8.34833C1.93105 6.85685 2.43293 5.41842 3.33881 4.30723C4.24468 3.19603 5.49121 2.48978 6.84077 2.3231H7.45419M0.703693 12.2794L0.702001 12.2794M0.703693 12.2794L14.2064 12.2743M14.2064 12.2794V12.2743M14.2064 12.2743C13.1335 12.2743 12.991 11.5123 12.9773 10.4627V8.34833C12.9756 6.85709 12.4742 5.41868 11.5687 4.30742C10.6632 3.19617 9.41696 2.48983 8.06761 2.3231H7.45419M7.45419 2.3231V0.701747" stroke="#001FDF" stroke-width="1.35109" stroke-linecap="round" stroke-linejoin="round"/>
</svg>
