<svg width="22" height="29" viewBox="0 0 22 29" fill="none" xmlns="http://www.w3.org/2000/svg">
<path d="M9.73026 15.6023C7.48697 15.6023 5.33556 16.4153 3.74932 17.8624C2.16307 19.3095 1.27193 21.2722 1.27193 23.3187V24.421C1.27193 25.2981 1.65385 26.1393 2.33367 26.7595C3.01349 27.3797 3.93552 27.7281 4.89693 27.7281H16.9803C17.9417 27.7281 18.8637 27.3797 19.5435 26.7595C20.2233 26.1393 20.6053 25.2981 20.6053 24.421V23.3187C20.6053 21.2722 19.7141 19.3095 18.1279 17.8624C16.5416 16.4153 14.3902 15.6023 12.1469 15.6023H9.73026Z" stroke="#333333" stroke-width="2.5"/>
<path d="M10.9385 1.27193C9.98251 1.27193 9.04804 1.53053 8.2532 2.01504C7.45836 2.49955 6.83886 3.1882 6.47304 3.9939C6.10722 4.79961 6.0115 5.68618 6.19799 6.54152C6.38449 7.39685 6.84482 8.18252 7.52077 8.79918C8.19673 9.41584 9.05795 9.83579 9.99552 10.0059C10.9331 10.1761 11.9049 10.0887 12.7881 9.75501C13.6713 9.42128 14.4261 8.85612 14.9572 8.131C15.4883 7.40589 15.7718 6.55338 15.7718 5.68129C15.7718 4.51186 15.2626 3.39032 14.3561 2.5634C13.4497 1.73649 12.2203 1.27193 10.9385 1.27193Z" stroke="#333333" stroke-width="2.5"/>
</svg>
