<svg width="59" height="49" viewBox="0 0 59 49" fill="none" xmlns="http://www.w3.org/2000/svg">
<g filter="url(#filter0_d_0_232)">
<path d="M51.0119 0H7.98799C4.13478 0 1.01114 2.8498 1.01114 6.3652V40.3129C1.01114 43.8283 4.13478 46.6781 7.98799 46.6781H51.0119C54.8651 46.6781 57.9888 43.8283 57.9888 40.3129V6.3652C57.9888 2.8498 54.8651 0 51.0119 0Z" fill="black"/>
</g>
<path d="M51.0119 0H7.98799C4.13478 0 1.01114 2.8498 1.01114 6.3652V40.3129C1.01114 43.8283 4.13478 46.6781 7.98799 46.6781H51.0119C54.8651 46.6781 57.9888 43.8283 57.9888 40.3129V6.3652C57.9888 2.8498 54.8651 0 51.0119 0Z" fill="#1A73E9"/>
<path fill-rule="evenodd" clip-rule="evenodd" d="M17.2902 16.9738V29.7042H19.6158V16.9738H17.2902ZM28.5185 17.3377L23.5859 21.839L21.9417 23.339L23.1045 24.3999L23.5859 24.8402L28.5185 29.3403L30.1639 27.8392L26.3929 24.3999H41.7094V22.2782H26.3929L30.1639 18.8388L28.5185 17.3377Z" fill="white"/>
<defs>
<filter id="filter0_d_0_232" x="0" y="0" width="59" height="48.7004" filterUnits="userSpaceOnUse" color-interpolation-filters="sRGB">
<feFlood flood-opacity="0" result="BackgroundImageFix"/>
<feColorMatrix in="SourceAlpha" type="matrix" values="0 0 0 0 0 0 0 0 0 0 0 0 0 0 0 0 0 0 127 0" result="hardAlpha"/>
<feOffset dy="1"/>
<feGaussianBlur stdDeviation="0.5"/>
<feColorMatrix type="matrix" values="0 0 0 0 0 0 0 0 0 0 0 0 0 0 0 0 0 0 0.36 0"/>
<feBlend mode="normal" in2="BackgroundImageFix" result="effect1_dropShadow_0_232"/>
<feBlend mode="normal" in="SourceGraphic" in2="effect1_dropShadow_0_232" result="shape"/>
</filter>
</defs>
</svg>
