<svg width="37" height="44" viewBox="0 0 37 44" fill="none" xmlns="http://www.w3.org/2000/svg">
<g filter="url(#filter0_d_0_43)">
<path d="M28.6213 0H7.90589C4.09228 0 1.00075 2.8205 1.00075 6.29977V35.6987C1.00075 39.178 4.09228 41.9985 7.90589 41.9985H28.6213C32.4349 41.9985 35.5265 39.178 35.5265 35.6987V6.29977C35.5265 2.8205 32.4349 0 28.6213 0Z" fill="black"/>
</g>
<path d="M28.6213 0H7.90589C4.09228 0 1.00075 2.8205 1.00075 6.29977V35.6987C1.00075 39.178 4.09228 41.9985 7.90589 41.9985H28.6213C32.4349 41.9985 35.5265 39.178 35.5265 35.6987V6.29977C35.5265 2.8205 32.4349 0 28.6213 0Z" fill="white"/>
<defs>
<filter id="filter0_d_0_43" x="0" y="0" width="36.5272" height="44" filterUnits="userSpaceOnUse" color-interpolation-filters="sRGB">
<feFlood flood-opacity="0" result="BackgroundImageFix"/>
<feColorMatrix in="SourceAlpha" type="matrix" values="0 0 0 0 0 0 0 0 0 0 0 0 0 0 0 0 0 0 127 0" result="hardAlpha"/>
<feOffset dy="1"/>
<feGaussianBlur stdDeviation="0.5"/>
<feColorMatrix type="matrix" values="0 0 0 0 0 0 0 0 0 0 0 0 0 0 0 0 0 0 0.36 0"/>
<feBlend mode="normal" in2="BackgroundImageFix" result="effect1_dropShadow_0_43"/>
<feBlend mode="normal" in="SourceGraphic" in2="effect1_dropShadow_0_43" result="shape"/>
</filter>
</defs>
</svg>
