<svg width="74" height="13" viewBox="0 0 74 13" fill="none" xmlns="http://www.w3.org/2000/svg">
<path d="M72.5321 4.05507V8.47556C73.4215 8.10117 73.9998 7.23024 73.9998 6.26532C73.9998 5.3004 73.4215 4.42946 72.5321 4.05507Z" fill="#333333"/>
<path d="M49.3245 3.6867C49.3245 2.87291 49.9842 2.2132 50.798 2.2132H67.7433C68.557 2.2132 69.2167 2.87291 69.2167 3.6867V8.84394C69.2167 9.65773 68.557 10.3174 67.7433 10.3174H50.798C49.9842 10.3174 49.3245 9.65773 49.3245 8.84394V3.6867Z" fill="#333333"/>
<path d="M32.7825 2.51673C35.2313 2.51683 37.5865 3.45778 39.3613 5.14508C39.4949 5.27534 39.7085 5.2737 39.8402 5.14139L41.1177 3.85208C41.1843 3.78498 41.2215 3.69408 41.2209 3.5995C41.2204 3.50493 41.1822 3.41447 41.1147 3.34815C36.4565 -1.11605 29.1077 -1.11605 24.4495 3.34815C24.382 3.41442 24.3437 3.50485 24.3431 3.59943C24.3425 3.694 24.3796 3.78493 24.4462 3.85208L25.7241 5.14139C25.8556 5.2739 26.0694 5.27554 26.203 5.14508C27.9779 3.45767 30.3334 2.51672 32.7825 2.51673Z" fill="#333333"/>
<path d="M32.7824 6.7114C34.1279 6.71132 35.4253 7.21142 36.4227 8.11454C36.5575 8.24271 36.77 8.23993 36.9015 8.10828L38.1776 6.81897C38.2448 6.75134 38.2821 6.6596 38.2811 6.56426C38.2801 6.46893 38.241 6.37796 38.1724 6.31172C35.1353 3.4866 30.432 3.4866 27.3949 6.31172C27.3263 6.37796 27.2872 6.46897 27.2863 6.56434C27.2854 6.6597 27.3228 6.75144 27.3901 6.81897L28.6658 8.10828C28.7973 8.23993 29.0098 8.24271 29.1447 8.11454C30.1414 7.21202 31.4378 6.71196 32.7824 6.7114Z" fill="#333333"/>
<path d="M35.2347 9.78842C35.303 9.72145 35.3406 9.62928 35.3386 9.53368C35.3367 9.43807 35.2953 9.34752 35.2244 9.28338C33.8148 8.09108 31.7502 8.09108 30.3405 9.28338C30.2695 9.34747 30.2282 9.438 30.2261 9.5336C30.2241 9.6292 30.2616 9.7214 30.3298 9.78842L32.5375 12.016C32.6022 12.0814 32.6904 12.1183 32.7825 12.1183C32.8745 12.1183 32.9627 12.0814 33.0274 12.016L35.2347 9.78842Z" fill="#333333"/>
<path d="M1.10512 7.73875H2.21025C2.82059 7.73875 3.31537 8.23353 3.31537 8.84387V11.0541C3.31537 11.6645 2.82059 12.1592 2.21025 12.1592H1.10512C0.49478 12.1592 0 11.6645 0 11.0541V8.84387C0 8.23353 0.49478 7.73875 1.10512 7.73875Z" fill="#333333"/>
<path d="M6.26243 5.52848H7.36756C7.9779 5.52848 8.47268 6.02326 8.47268 6.6336V11.0541C8.47268 11.6644 7.9779 12.1592 7.36756 12.1592H6.26243C5.65209 12.1592 5.15731 11.6644 5.15731 11.0541V6.6336C5.15731 6.02326 5.65209 5.52848 6.26243 5.52848Z" fill="#333333"/>
<path d="M11.4197 2.94986H12.5248C13.1351 2.94986 13.6299 3.44464 13.6299 4.05499V11.0541C13.6299 11.6644 13.1351 12.1592 12.5248 12.1592H11.4197C10.8093 12.1592 10.3145 11.6644 10.3145 11.0541V4.05499C10.3145 3.44464 10.8093 2.94986 11.4197 2.94986Z" fill="#333333"/>
<path d="M16.577 0.371257H17.6821C18.2924 0.371257 18.7872 0.866038 18.7872 1.47638V11.0541C18.7872 11.6645 18.2924 12.1592 17.6821 12.1592H16.577C15.9666 12.1592 15.4718 11.6645 15.4718 11.0541V1.47638C15.4718 0.866038 15.9666 0.371257 16.577 0.371257Z" fill="#333333"/>
</svg>
