<svg width="29" height="29" viewBox="0 0 29 29" fill="none" xmlns="http://www.w3.org/2000/svg">
<path d="M27.7281 27.7281L20.3164 20.3164M20.3164 20.3164L19.5271 21.1056C17.3067 22.9211 14.4734 23.8136 11.6133 23.5987C8.75323 23.3838 6.08517 22.0778 4.16099 19.9509C2.23681 17.8239 1.20372 15.0388 1.27543 12.1716C1.34713 9.30431 2.51813 6.5743 4.54622 4.54622C6.5743 2.51813 9.30431 1.34713 12.1716 1.27543C15.0388 1.20372 17.8239 2.23681 19.9509 4.16099C22.0778 6.08517 23.3838 8.75323 23.5987 11.6133C23.8136 14.4734 22.9211 17.3067 21.1056 19.5271L20.3164 20.3164Z" stroke="#333333" stroke-width="2.5" stroke-linecap="round" stroke-linejoin="round"/>
</svg>
