<svg width="62" height="10" viewBox="0 0 62 10" fill="none" xmlns="http://www.w3.org/2000/svg">
<path d="M10.1087 3.7402H6.25052L5.05433 0L3.85814 3.7402H0L3.11684 6.04835L1.93749 9.7717L5.05433 7.46356L8.17116 9.7717L6.97497 6.0315L10.1087 3.7402Z" fill="#FFCE31"/>
<path d="M23.0813 3.7402H19.2231L18.0269 0L16.8307 3.7402H12.9726L16.0894 6.04835L14.9101 9.7717L18.0269 7.46356L21.1438 9.7717L19.9476 6.0315L23.0813 3.7402Z" fill="#FFCE31"/>
<path d="M36.0539 3.7402H32.1957L30.9995 0L29.8033 3.7402H25.9452L29.062 6.04835L27.8827 9.7717L30.9995 7.46356L34.1164 9.7717L32.9202 6.0315L36.0539 3.7402Z" fill="#FFCE31"/>
<path d="M49.027 3.7402H45.1688L43.9726 0L42.7764 3.7402H38.9183L42.0351 6.04835L40.8558 9.7717L43.9726 7.46356L47.0895 9.7717L45.8933 6.0315L49.027 3.7402Z" fill="#FFCE31"/>
<path d="M62.0001 3.7402H58.1419L56.9457 0L55.7495 3.7402H51.8914L55.0082 6.04835L53.8289 9.7717L56.9457 7.46356L60.0626 9.7717L58.8664 6.0315L62.0001 3.7402Z" fill="#EAE1B7"/>
</svg>
