<svg width="60" height="19" viewBox="0 0 60 19" fill="none" xmlns="http://www.w3.org/2000/svg">
<path d="M52.2856 0.571358C51.1427 0.571358 50.2856 0.666595 49.8094 1.80945L42.6665 17.7142H47.8094L48.7617 14.8571H54.857L55.4284 17.7142H59.9998L55.9998 0.571358H52.2856ZM50.0951 11.9999C50.3808 11.1428 51.9998 6.95231 51.9998 6.95231C51.9998 6.95231 52.3808 5.90469 52.6665 5.23802L52.9522 6.85707C52.9522 6.85707 53.9046 11.1428 54.0951 12.0952H50.0951V11.9999Z" fill="#3C58BF"/>
<path d="M44.0944 0.761906C43.142 0.380953 41.6182 0 39.7134 0C34.9515 0 31.5229 2.38095 31.5229 5.80952C31.5229 8.38095 33.9039 9.71429 35.8087 10.5714C37.7134 11.4286 38.2849 12 38.2849 12.7619C38.2849 13.9048 36.761 14.4762 35.4277 14.4762C33.523 14.4762 32.4753 14.1905 30.8563 13.5238L30.1896 13.2381L29.5229 17.1429C30.6658 17.619 32.761 18.0952 34.9515 18.0952C39.9991 18.0952 43.3325 15.7143 43.3325 12.0952C43.3325 10.0952 42.0944 8.57143 39.2372 7.33333C37.523 6.47619 36.4753 6 36.4753 5.14286C36.4753 4.38095 37.3325 3.61905 39.2372 3.61905C40.8563 3.61905 41.9991 3.90476 42.8563 4.28571L43.3325 4.47619L44.0944 0.761906Z" fill="#3C58BF"/>
<path d="M21.9995 17.7142L25.0471 0.571358H29.809L26.8567 17.7142H21.9995Z" fill="#3C58BF"/>
<path d="M13.2376 12.5714L12.7614 10.0952C11.9042 7.23808 9.14235 4.09522 6.09473 2.57141L10.3804 17.8095H15.5233L23.2376 0.666649H18.0947L13.2376 12.5714Z" fill="#3C58BF"/>
<path d="M0 0.571358L0.857143 0.761835C6.95238 2.19041 11.1429 5.80945 12.7619 10.0952L11.0476 1.99993C10.7619 0.857072 9.90476 0.571358 8.85714 0.571358H0Z" fill="#FFBC00"/>
</svg>
